<?xml version="1.0" encoding="utf-8"?><svg viewBox="0 0 500 500" xmlns="http://www.w3.org/2000/svg" xmlns:bx="https://boxy-svg.com"><path style="fill: rgb(64, 64, 64);" d="M 15 0 H 484 A 16 16 0 0 1 500 16 V 47.312 H 0 V 15 A 15 15 0 0 1 15 0 Z" bx:shape="rect 0 0 500 47.312 15 16 0 0 1@05baa068"/><circle style="fill: rgb(234, 68, 68);" cx="29.473" cy="23.011" r="7.344"/><circle style="fill: rgb(234, 201, 68);" cx="58.177" cy="22.543" r="7.344" transform="matrix(1, 0, 0, 1.031863, -5.389861, -0.016285)"/><circle style="fill: rgb(52, 185, 56);" cx="58.177" cy="22.543" r="7.344" transform="matrix(1, 0, 0, 1.031863, 17.888227, -0.016285)"/><rect y="47.312" width="500" height="452.688" style="fill: rgb(49, 54, 59);"/><polygon style="stroke: rgb(0, 0, 0); fill: rgb(240, 240, 240);" points="71.581 100 224.35 252.769 77.119 400 25.235 348.115 122.193 251.156 22.129 151.093"/><rect style="fill: rgb(240, 240, 240);" x="235.188" y="381.519" width="242.408" height="49.262" rx="10" ry="10"/><g transform="matrix(0.513677, 0, 0, 0.513677, 257.101013, 152.253387)" style=""><polygon style="fill: rgb(240, 240, 240);" points="196.4,0 292,49.2 388,98 292,147.2 196.4,196.4 100.8,147.2 4.8,98 100.8,49.2 &#9;"/><polygon style="fill: rgb(49, 54, 59);" points="316,179.6 316,135.2 268,159.6 268,204 294.4,171.6 &#9;"/><polygon style="fill: rgb(240, 240, 240);" points="196.4,196.4 196.4,392.8 388,294.8 388,98 316,135.2 314.4,136 314.4,179.2 294.4,171.6 &#10;&#9;&#9;268,204 268,159.6 &#9;"/><polygon style="fill: rgb(240, 240, 240);" points="196.4,392.8 196.4,196.4 100.8,147.2 4.8,98 4.8,294.8 &#9;"/><polygon style="fill: rgb(49, 54, 59);" points="76.8,61.2 268,159.6 314.4,136 316,135.2 124.8,36.8 100.8,49.2 &#9;"/></g><g transform="matrix(0.255978, 0, 0, 0.255978, 129.942459, 73.826851)" style=""/><g transform="matrix(0.255978, 0, 0, 0.255978, 129.942459, 73.826851)" style=""/><g transform="matrix(0.255978, 0, 0, 0.255978, 129.942459, 73.826851)" style=""/><g transform="matrix(0.255978, 0, 0, 0.255978, 129.942459, 73.826851)" style=""/><g transform="matrix(0.255978, 0, 0, 0.255978, 129.942459, 73.826851)" style=""/><g transform="matrix(0.255978, 0, 0, 0.255978, 129.942459, 73.826851)" style=""/><g transform="matrix(0.255978, 0, 0, 0.255978, 129.942459, 73.826851)" style=""/><g transform="matrix(0.255978, 0, 0, 0.255978, 129.942459, 73.826851)" style=""/><g transform="matrix(0.255978, 0, 0, 0.255978, 129.942459, 73.826851)" style=""/><g transform="matrix(0.255978, 0, 0, 0.255978, 129.942459, 73.826851)" style=""/><g transform="matrix(0.255978, 0, 0, 0.255978, 129.942459, 73.826851)" style=""/><g transform="matrix(0.255978, 0, 0, 0.255978, 129.942459, 73.826851)" style=""/><g transform="matrix(0.255978, 0, 0, 0.255978, 129.942459, 73.826851)" style=""/><g transform="matrix(0.255978, 0, 0, 0.255978, 129.942459, 73.826851)" style=""/><g transform="matrix(0.255978, 0, 0, 0.255978, 129.942459, 73.826851)" style=""/><g transform="matrix(0.102006, -0.041213, 0.041213, 0.102006, 379.520447, 250.851166)" style=""/><g transform="matrix(0.102006, -0.041213, 0.041213, 0.102006, 379.520447, 250.851166)" style=""/><g transform="matrix(0.102006, -0.041213, 0.041213, 0.102006, 379.520447, 250.851166)" style=""/><g transform="matrix(0.102006, -0.041213, 0.041213, 0.102006, 379.520447, 250.851166)" style=""/><g transform="matrix(0.102006, -0.041213, 0.041213, 0.102006, 379.520447, 250.851166)" style=""/><g transform="matrix(0.102006, -0.041213, 0.041213, 0.102006, 379.520447, 250.851166)" style=""/><g transform="matrix(0.102006, -0.041213, 0.041213, 0.102006, 379.520447, 250.851166)" style=""/><g transform="matrix(0.102006, -0.041213, 0.041213, 0.102006, 379.520447, 250.851166)" style=""/><g transform="matrix(0.102006, -0.041213, 0.041213, 0.102006, 379.520447, 250.851166)" style=""/><g transform="matrix(0.102006, -0.041213, 0.041213, 0.102006, 379.520447, 250.851166)" style=""/><g transform="matrix(0.102006, -0.041213, 0.041213, 0.102006, 379.520447, 250.851166)" style=""/><g transform="matrix(0.102006, -0.041213, 0.041213, 0.102006, 379.520447, 250.851166)" style=""/><g transform="matrix(0.102006, -0.041213, 0.041213, 0.102006, 379.520447, 250.851166)" style=""/><g transform="matrix(0.102006, -0.041213, 0.041213, 0.102006, 379.520447, 250.851166)" style=""/><g transform="matrix(0.102006, -0.041213, 0.041213, 0.102006, 379.520447, 250.851166)" style=""/></svg>